<svg width="177" height="177" viewBox="0 0 177 177" fill="none" xmlns="http://www.w3.org/2000/svg">
<path d="M7.96894 88.5C2.90234 79.8023 0 69.6887 0 58.8972C0 26.3692 26.3692 0 58.8972 0C69.6887 0 79.8022 2.90234 88.5 7.96894C97.1978 2.90234 107.311 0 118.103 0C150.631 0 177 26.3692 177 58.8972C177 69.6887 174.098 79.8023 169.031 88.5C174.098 97.1977 177 107.311 177 118.103C177 150.631 150.631 177 118.103 177C107.311 177 97.1978 174.098 88.5 169.031C79.8022 174.098 69.6887 177 58.8972 177C26.3692 177 0 150.631 0 118.103C0 107.311 2.90234 97.1977 7.96894 88.5Z" fill="#EFA8E0"/>
</svg>
