<svg width="251" height="251" viewBox="0 0 251 251" fill="none" xmlns="http://www.w3.org/2000/svg">
<path d="M149.163 66.9403V24.083C149.163 10.7821 138.381 0 125.08 0C111.779 0 100.997 10.7821 100.997 24.083V66.9343L70.6966 36.6339C61.2914 27.2288 46.0432 27.2288 36.6381 36.6339C27.2329 46.0391 27.2329 61.2873 36.6381 70.6925L66.9427 100.997H24.083C10.7821 100.997 0 111.779 0 125.08C0 138.381 10.7821 149.163 24.083 149.163H66.9402L36.6339 179.469C27.2287 188.875 27.2287 204.123 36.6339 213.528C46.039 222.933 61.2872 222.933 70.6924 213.528L100.997 183.223V226.083C100.997 239.384 111.779 250.166 125.08 250.166C138.381 250.166 149.163 239.384 149.163 226.083V183.217L179.474 213.528C188.879 222.933 204.127 222.933 213.532 213.528C222.937 204.123 222.937 188.875 213.532 179.47L183.226 149.163H226.083C239.384 149.163 250.166 138.381 250.166 125.08C250.166 111.779 239.384 100.997 226.083 100.997H183.223L213.528 70.6924C222.933 61.2872 222.933 46.0391 213.528 36.6339C204.123 27.2287 188.875 27.2287 179.469 36.6339L149.163 66.9403Z" fill="#7197FB"/>
</svg>
